<?xml version="1.0" standalone="no"?><!DOCTYPE svg PUBLIC "-//W3C//DTD SVG 1.1//EN" "http://www.w3.org/Graphics/SVG/1.1/DTD/svg11.dtd"><svg t="1608601160753" class="icon" viewBox="0 0 1024 1024" version="1.1" xmlns="http://www.w3.org/2000/svg" p-id="60414" xmlns:xlink="http://www.w3.org/1999/xlink" width="200" height="200"><defs><style type="text/css"></style></defs><path d="M956.2112 63.1808a24.9856 24.9856 0 0 1 0.8704 35.328l-86.1184 86.1184 27.8528 27.8528a192 192 0 0 1 0 271.4624l-84.0704 84.0704a73.0624 73.0624 0 0 1-103.3728 0L449.6384 306.2784a73.0624 73.0624 0 0 1 0-103.3728l84.0704-84.0704a192 192 0 0 1 264.3456-6.7584l7.168 6.7584 29.5424 29.5424 86.1184-86.016a24.7296 24.7296 0 0 1 31.7952-2.1504z m-91.8528 183.7568l-93.5936-93.6448-6.144-5.7856a143.2576 143.2576 0 0 0-196.4544 5.7856L484.096 237.3632a24.3712 24.3712 0 0 0 0 34.4576l261.7344 261.7344a24.3712 24.3712 0 0 0 34.4576 0l84.0704-84.0704a143.2576 143.2576 0 0 0 0-202.5472zM614.144 542.8224a24.9856 24.9856 0 0 1 0.8704 35.328l-62.3104 62.3104 43.3152 43.3664a73.0624 73.0624 0 0 1 0 103.3216l-98.9696 98.9696a213.0432 213.0432 0 0 1-293.7856 7.168l-7.4752-7.168-12.9024-12.9536-86.1696 86.1696a24.7296 24.7296 0 0 1-31.744 2.0992l-3.584-2.9696a25.2928 25.2928 0 0 1-3.6864-31.9488l2.816-3.3792 86.1696-86.1696-14.7456-14.6432a213.0432 213.0432 0 0 1 0-301.2608L230.912 422.0928a73.0624 73.0624 0 0 1 103.3728 0l49.8176 49.7664L446.464 409.6a24.7296 24.7296 0 0 1 31.7952-2.0992l3.584 2.9696a25.2928 25.2928 0 0 1 3.6352 31.9488l-2.7648 3.3792L420.352 508.0576l96.1536 96.2048 62.3104-62.3104a24.7296 24.7296 0 0 1 31.744-2.048z m-52.5824 175.4624L299.8272 456.4992a24.3712 24.3712 0 0 0-34.4576 0L166.4 555.52a164.352 164.352 0 0 0 0 232.448l63.8464 63.744 6.5024 6.2464a164.352 164.352 0 0 0 225.8432-6.2464l98.9696-98.9184a24.3712 24.3712 0 0 0 0-34.4576z" p-id="60415" fill="#dbdbdb"></path></svg>