<?xml version="1.0" standalone="no"?><!DOCTYPE svg PUBLIC "-//W3C//DTD SVG 1.1//EN" "http://www.w3.org/Graphics/SVG/1.1/DTD/svg11.dtd"><svg t="1608600876119" class="icon" viewBox="0 0 1024 1024" version="1.1" xmlns="http://www.w3.org/2000/svg" p-id="60038" xmlns:xlink="http://www.w3.org/1999/xlink" width="200" height="200"><defs><style type="text/css"></style></defs><path d="M896.07 416.1H129.99c-17.65 0-31.96-14.31-31.96-31.96v-0.08c0-17.65 14.31-31.96 31.96-31.96h766.08c17.65 0 31.96 14.31 31.96 31.96v0.08c0 17.65-14.31 31.96-31.96 31.96z" fill="#cdcdcd" p-id="60039"></path><path d="M511.64 831.36c-42.18 0-83.12-8.43-121.66-25.05-37.17-16.03-70.54-38.96-99.18-68.16-58.79-59.94-91.16-139.6-91.16-224.29v-114.5h64v114.5c0 139.78 111.25 253.5 248 253.5s248-113.72 248-253.5v-114.5h64v114.5c0 84.69-32.38 164.34-91.16 224.29-28.64 29.2-62 52.13-99.18 68.16-38.54 16.62-79.48 25.05-121.66 25.05z" fill="#cdcdcd" p-id="60040"></path><path d="M510.93 959.78c-17.67 0-32-14.33-32-32v-128c0-17.67 14.33-32 32-32s32 14.33 32 32v128c0 17.68-14.33 32-32 32zM320.06 383.97c-17.67 0-32-14.33-32-32v-222c0-17.67 14.33-32 32-32s32 14.33 32 32v222c0 17.67-14.32 32-32 32zM703.33 383.97c-17.67 0-32-14.33-32-32v-222c0-17.67 14.33-32 32-32s32 14.33 32 32v222c0 17.67-14.32 32-32 32z" fill="#cdcdcd" p-id="60041"></path></svg>