<?xml version="1.0" standalone="no"?><!DOCTYPE svg PUBLIC "-//W3C//DTD SVG 1.1//EN" "http://www.w3.org/Graphics/SVG/1.1/DTD/svg11.dtd"><svg t="1612184903104" class="icon" viewBox="0 0 1024 1024" version="1.1" xmlns="http://www.w3.org/2000/svg" p-id="5836" xmlns:xlink="http://www.w3.org/1999/xlink" width="200" height="200"><defs><style type="text/css"></style></defs><path d="M363.52 480.4096H241.7152a116.0704 116.0704 0 0 1-116.1216-116.1216V242.5856A116.1216 116.1216 0 0 1 241.7152 126.464H363.52a116.1728 116.1728 0 0 1 116.0192 116.1216v121.7024A116.1216 116.1216 0 0 1 363.52 480.4096zM780.032 478.9248h-120.2176a116.0704 116.0704 0 0 1-116.0704-116.1216V242.5856a116.1216 116.1216 0 0 1 116.0704-116.1216h120.2176A116.1216 116.1216 0 0 1 896 242.5856v120.2176a116.0704 116.0704 0 0 1-115.968 116.1216zM363.52 898.9696H241.7152a116.0704 116.0704 0 0 1-116.1216-116.1216v-121.7024a116.1216 116.1216 0 0 1 116.1216-116.1216H363.52a116.1728 116.1728 0 0 1 116.1216 116.1216v121.7024A116.1216 116.1216 0 0 1 363.52 898.9696zM780.032 897.4848h-120.2176a116.0704 116.0704 0 0 1-116.0704-116.1216v-120.2176a116.1216 116.1216 0 0 1 116.0704-116.1216h120.2176A116.1216 116.1216 0 0 1 896 661.1456v120.2176a116.0704 116.0704 0 0 1-115.968 116.1216z" fill="#bfbfbf" p-id="5837"></path></svg>