<?xml version="1.0" standalone="no"?><!DOCTYPE svg PUBLIC "-//W3C//DTD SVG 1.1//EN" "http://www.w3.org/Graphics/SVG/1.1/DTD/svg11.dtd"><svg t="1608600612575" class="icon" viewBox="0 0 1024 1024" version="1.1" xmlns="http://www.w3.org/2000/svg" p-id="59005" xmlns:xlink="http://www.w3.org/1999/xlink" width="200" height="200"><defs><style type="text/css"></style></defs><path d="M469.1 181.4l-1.7 1.7c-148.8 19.1-267 137.5-286.6 287.3l-1.7 1.7-38.6 5.7v73l38.4 4.8 1.7 1.7c19.2 151.4 138.9 271 289.4 289.1l1.7 1.7 5.7 39.1h72.5l4.9-40 1.7-1.7c147.8-21 264.1-140.1 282.4-289.6l1.7-1.7 43.2-6.4v-73l-43.9-5.5-1.7-1.7c-20.6-147.5-136.7-264-283.2-284.2l-1.7-1.7-6.3-43.4h-72.5l-5.4 43.1zM145.8 436C176.7 291.4 289 178.6 432.5 147.9l2-16.1c2.4-19.4 18.7-33.9 38.1-33.9h75.9c19.1 0 35.2 14.1 38 33l2.5 17.5c141.3 31.2 251.9 142 283.7 284.1l17.7 2.2c19.2 2.4 33.7 18.9 33.7 38.4v76.5c0 19.2-14 35.5-32.8 38.3l-17.2 2.5c-29.6 144.2-140.2 257.6-282.8 290l-1.7 13.6c-2.4 19.4-18.7 33.9-38.1 33.9h-75.9c-19 0-35.2-14.1-38-33l-1.9-12.7C290.6 852.8 176 738.4 145.5 592.5l-11.8-1.5c-19.2-2.4-33.7-18.9-33.7-38.4v-76.5c0-19.2 14-35.5 32.8-38.3l13-1.8z m0 0" fill="#cdcdcd" p-id="59006"></path><path d="M512.1 790.2c-84.3 0-163.1-38.8-215-105.4-37.9-48.5-58.4-108.4-58.3-170 0-51.6 14.2-101.5 40.9-145 49.8-81.1 137.8-130.4 232.4-130.4 94.8 0 182 49.1 232 129.7 27.1 43.7 41.4 94.2 41.3 145.7 0 62.2-20.6 121.8-58.6 170.4-51.7 66.4-130.9 105.1-214.7 105z m0-39.3c72.2 0 139.6-33.1 184.1-90 32.6-41.6 50.3-93 50.2-146 0-44.5-12.2-87.5-35.4-124.8-42.8-69.2-118-111.2-198.9-111.2-81.2 0-156.6 42.2-199.2 111.8-23 37.3-35.1 80.3-35 124.3 0 53.2 17.5 104.2 50 145.7 44.2 56.9 112.2 90.3 184.2 90.2z m0 0" fill="#cdcdcd" p-id="59007"></path><path d="M473.5 592.2h-34.2l-11.1-34h-53.6l-10.9 34h-34.1l54-148.5h36.9l53 148.5z m-52.7-58.5L404 482.3c-1.3-4.2-2-8.6-2.3-12.9h-0.9c-0.4 4.3-1.2 8.5-2.6 12.6l-16.9 51.9h39.5z m102.7 6.8v51.8h-31.4V443.7h50.7c36.7 0 55 15.6 55 47 0 15.2-5.5 27.4-16.6 36.6-11.1 9.2-24.9 13.6-41.6 13.2h-16.1z m0-72.2v47.9h13.6c18.5 0 27.7-8.1 27.7-24.3 0-15.8-9.1-23.7-27.4-23.7l-13.9 0.1z m150.4 0.1h-12.7v99.2h12.7v24.6h-56.5v-24.6h12.5v-99.2h-12.5v-24.6h56.5v24.6z m0 0" fill="#cdcdcd" p-id="59008"></path></svg>