<?xml version="1.0" standalone="no"?><!DOCTYPE svg PUBLIC "-//W3C//DTD SVG 1.1//EN" "http://www.w3.org/Graphics/SVG/1.1/DTD/svg11.dtd"><svg t="1608602173627" class="icon" viewBox="0 0 1024 1024" version="1.1" xmlns="http://www.w3.org/2000/svg" p-id="63393" xmlns:xlink="http://www.w3.org/1999/xlink" width="200" height="200"><defs><style type="text/css"></style></defs><path d="M315.863 802.77c97.28 84.096 237.986 98.73 350.808 33.593 19.343-11.168 37.188-24.256 53.36-39.06l1.21-1.114 48.906 52.84c-20.418 18.899-42.999 35.555-67.476 49.687-138.204 79.792-310.14 62.852-430.27-38.385l-3.625-3.093 47.087-54.469z m330.044-584.42c82.1 30.202 151.415 87.85 196.059 165.174 43.96 76.142 59.44 163.468 45.673 248.452l-0.426 2.574-70.993-12c11.736-69.424-0.658-140.758-36.608-203.026-35.782-61.976-91.01-108.229-156.574-132.862l-1.99-0.74 24.859-67.573z m-320.108 27.309a377.109 377.109 0 0 1 54.25-25.817l1.865-0.705 25.287 67.413a304.988 304.988 0 0 0-45.402 21.463c-111.623 64.445-169.284 191.655-147.124 316.941l0.696 3.796-70.737 13.428c-29.673-156.312 41.658-315.974 181.165-396.519z" fill="#bfbfbf" p-id="63394"></path><path d="M141.86 609.56C68.5 651.912 43.029 745.377 85.175 818.377S221 916.05 294.36 873.697c73.358-42.354 98.831-135.82 56.685-208.82-42.147-72.999-135.827-97.672-209.185-55.318z m36 62.353c39.04-22.54 88.636-9.478 110.83 28.965 22.196 38.443 8.71 87.925-30.33 110.465-39.04 22.54-88.636 9.478-110.831-28.965-22.195-38.443-8.71-87.925 30.33-110.465zM668.083 227.237c0-84.961-68.336-153.98-152.813-153.98-84.476 0-152.812 69.019-152.812 153.98 0 84.96 68.336 153.979 152.812 153.979 84.477 0 152.813-69.019 152.813-153.98z m-72 0c0 45.355-36.262 81.979-80.813 81.979-44.55 0-80.812-36.624-80.812-81.98 0-45.355 36.261-81.978 80.812-81.978 44.551 0 80.813 36.623 80.813 81.979zM735.7 873.71c73.577 42.48 167.517 17.809 209.755-55.35 42.238-73.16 16.635-166.849-56.943-209.33-73.578-42.48-167.518-17.808-209.756 55.35-42.239 73.16-16.635 166.85 56.943 209.33z m36-62.354c-39.28-22.678-52.866-72.393-30.59-110.975 22.275-38.583 72.123-51.674 111.402-28.996 39.279 22.677 52.865 72.392 30.59 110.975-22.276 38.582-72.124 51.674-111.403 28.996z" fill="#bfbfbf" p-id="63395"></path></svg>