<?xml version="1.0" standalone="no"?><!DOCTYPE svg PUBLIC "-//W3C//DTD SVG 1.1//EN" "http://www.w3.org/Graphics/SVG/1.1/DTD/svg11.dtd"><svg t="1608601868512" class="icon" viewBox="0 0 1024 1024" version="1.1" xmlns="http://www.w3.org/2000/svg" p-id="61613" xmlns:xlink="http://www.w3.org/1999/xlink" width="200" height="200"><defs><style type="text/css"></style></defs><path d="M874.666667 576H149.333333c-23.914667 0-42.666667 15.936-42.666666 36.266667v119.466666c0 20.330667 18.752 36.266667 42.666666 36.266667h341.333334v85.909333c-8.128 4.736-14.592 11.946667-18.176 20.757334H128a21.333333 21.333333 0 1 0 0 42.666666h350.933333c7.829333 9.685333 19.648 16 33.066667 16s25.237333-6.314667 33.066667-16H896a21.333333 21.333333 0 1 0 0-42.666666H551.509333a42.624 42.624 0 0 0-18.176-20.757334V768h341.333334c23.914667 0 42.666667-15.936 42.666666-36.266667v-119.466666c0-20.330667-18.752-36.266667-42.666666-36.266667z m0 149.333333H149.333333v-106.666666h725.333334v106.666666zM874.666667 341.333333H149.333333c-23.914667 0-42.666667 15.936-42.666666 36.266667v119.466667c0 20.330667 18.752 36.266667 42.666666 36.266666h725.333334c23.914667 0 42.666667-15.936 42.666666-36.266666v-119.466667c0-20.330667-18.752-36.266667-42.666666-36.266667z m0 149.333334H149.333333v-106.666667h725.333334v106.666667zM874.666667 106.666667H149.333333c-23.914667 0-42.666667 15.936-42.666666 36.266666v119.466667c0 20.330667 18.752 36.266667 42.666666 36.266667h725.333334c23.914667 0 42.666667-15.936 42.666666-36.266667V142.933333c0-20.330667-18.752-36.266667-42.666666-36.266666z m0 149.333333H149.333333V149.333333h725.333334v106.666667z" fill="#707070" p-id="61614"></path><path d="M224 202.666667m-32 0a32 32 0 1 0 64 0 32 32 0 1 0-64 0Z" fill="#707070" p-id="61615"></path><path d="M224 437.333333m-32 0a32 32 0 1 0 64 0 32 32 0 1 0-64 0Z" fill="#707070" p-id="61616"></path><path d="M224 672m-32 0a32 32 0 1 0 64 0 32 32 0 1 0-64 0Z" fill="#707070" p-id="61617"></path></svg>